<?xml version="1.0" encoding="UTF-8"?><svg xmlns="http://www.w3.org/2000/svg" xmlns:xlink="http://www.w3.org/1999/xlink" height="353.1" preserveAspectRatio="xMidYMid meet" version="1.0" viewBox="0.0 0.0 437.6 353.1" width="437.6" zoomAndPan="magnify"><defs><clipPath id="a"><path d="M 0 0 L 437.578125 0 L 437.578125 353.089844 L 0 353.089844 Z M 0 0"/></clipPath><clipPath id="b"><path d="M 21 0 L 437.578125 0 L 437.578125 346 L 21 346 Z M 21 0"/></clipPath></defs><g><g clip-path="url(#a)" fill-rule="evenodd"><g id="change1_1"><path d="M 348.117188 22.785156 C 343.890625 33.59375 340.425781 41.925781 337.726562 47.785156 C 333.621094 50.855469 326.730469 54.6875 317.058594 59.285156 C 323.488281 58.722656 328.539062 57.785156 332.214844 56.476562 C 328.335938 62.890625 325.175781 67.285156 322.738281 69.664062 C 314.867188 73.160156 308.113281 75.617188 302.472656 77.039062 C 306.390625 77.34375 311.246094 77.28125 317.03125 76.851562 C 311.429688 84.359375 303.855469 92.535156 294.304688 101.378906 C 293.394531 103.53125 292.488281 106.125 291.59375 109.164062 C 297.5625 101.855469 301.941406 97.105469 304.726562 94.914062 C 308.757812 94.109375 312.578125 93.351562 316.199219 92.648438 C 317.164062 92.460938 318.117188 92.273438 319.054688 92.09375 C 327.246094 90.507812 334.308594 89.199219 340.238281 88.164062 C 338.265625 90.421875 335.753906 93.253906 332.699219 96.664062 C 338.273438 93.359375 343.601562 90.523438 348.6875 88.164062 C 351.496094 87.367188 354.503906 86.886719 357.707031 86.722656 C 360.128906 86.597656 362.65625 86.632812 365.265625 86.777344 C 366.054688 86.824219 366.855469 86.878906 367.660156 86.941406 C 378.554688 87.804688 390.601562 90.304688 401.820312 91.085938 C 403.230469 91.183594 404.628906 91.253906 406.007812 91.289062 C 405.429688 91.550781 404.777344 91.886719 404.050781 92.300781 C 399.054688 95.15625 390.613281 101.695312 378.71875 111.914062 C 378.304688 112.242188 377.890625 112.558594 377.476562 112.855469 C 376.855469 113.308594 376.238281 113.726562 375.617188 114.117188 C 373.375 115.527344 371.136719 116.542969 368.898438 117.164062 C 357.109375 118.441406 348.507812 118.984375 343.089844 118.789062 C 349.371094 120.71875 355.273438 122.179688 360.789062 123.164062 C 351.863281 129.390625 345.679688 131.402344 338.503906 133.332031 C 337.433594 133.617188 336.34375 133.902344 335.21875 134.199219 C 332.238281 134.984375 329.019531 135.851562 325.328125 137.050781 C 324.824219 137.214844 324.320312 137.382812 323.816406 137.550781 C 323.082031 137.800781 322.347656 138.050781 321.613281 138.308594 C 319.546875 139.035156 317.488281 139.804688 315.4375 140.617188 C 320.238281 141.445312 324.964844 142.421875 329.613281 143.542969 C 325.65625 145.542969 321.699219 147.542969 317.738281 149.542969 C 326.617188 147.578125 334.113281 146.289062 340.234375 145.667969 C 342.621094 146.332031 344.714844 147.082031 346.515625 147.921875 C 342.09375 149.183594 338.019531 151.039062 334.296875 153.480469 C 343.371094 151.179688 351.613281 150.847656 359.019531 152.484375 C 371.179688 156.722656 383.320312 163.015625 395.441406 171.359375 C 392.339844 172.503906 389.484375 173.878906 386.878906 175.484375 C 393.242188 174.425781 397.429688 174.257812 399.441406 174.984375 C 412.6875 184.882812 425.402344 195.71875 437.578125 207.484375 C 421.8125 204.941406 409.839844 205.886719 394.859375 204.46875 C 388.402344 203.859375 383.421875 202.90625 379.914062 201.609375 C 371.558594 197.128906 366.382812 193.796875 364.382812 191.609375 C 366.234375 194.824219 369.164062 198.011719 373.175781 201.171875 C 367.335938 200.164062 362.296875 198.425781 356.644531 197.1875 C 350.753906 195.894531 344.625 195.953125 339.09375 192.984375 C 333.488281 186.882812 329.890625 181.90625 328.300781 178.046875 C 329.722656 183.679688 331.1875 188.011719 332.699219 191.046875 C 331.9375 190.792969 331.191406 190.519531 330.453125 190.230469 C 332.765625 193.144531 335.238281 196.414062 337.882812 200.035156 C 338.273438 200.570312 338.667969 201.113281 339.0625 201.660156 C 340.15625 203.179688 341.28125 204.753906 342.433594 206.386719 C 342.8125 206.929688 343.199219 207.480469 343.585938 208.035156 C 347.265625 213.300781 351.21875 219.148438 355.449219 225.582031 C 351.882812 224.804688 348.113281 224.222656 344.144531 223.832031 C 355.339844 229.84375 361.886719 233.925781 363.78125 236.082031 C 364.828125 237.988281 365.894531 243.5625 366.984375 247.433594 C 367.089844 247.8125 367.199219 248.175781 367.304688 248.519531 C 367.40625 248.835938 367.507812 249.15625 367.613281 249.46875 C 370.734375 258.992188 375.535156 267.898438 376.789062 277.972656 C 376.894531 278.832031 376.976562 279.703125 377.027344 280.582031 C 376.644531 280.15625 376.253906 279.730469 375.859375 279.308594 C 369.859375 272.867188 362.484375 266.585938 353.734375 260.457031 C 350.695312 254.34375 348.296875 249.699219 346.539062 246.519531 C 347.605469 252.644531 348.140625 255.707031 348.140625 255.707031 C 344.851562 253.191406 341.488281 250.933594 338.042969 248.933594 C 337.453125 248.589844 336.859375 248.253906 336.261719 247.925781 C 332.019531 245.589844 327.664062 243.644531 323.191406 242.082031 C 320.949219 239.574219 316.648438 233.242188 310.285156 223.082031 C 312.121094 227.882812 313.835938 232.882812 315.425781 238.082031 C 309.914062 234.851562 304.628906 231.828125 299.566406 229.007812 C 300.207031 229.742188 300.855469 230.476562 301.515625 231.207031 C 296.769531 230.371094 291.476562 230.371094 285.640625 231.207031 C 293.980469 232.613281 300.394531 234.863281 304.890625 237.960938 C 309.589844 246.503906 312.878906 251.628906 314.765625 253.335938 C 308.355469 250.972656 301.957031 248.953125 295.574219 247.273438 C 305.945312 251.460938 313.382812 256.191406 317.890625 261.460938 C 321.964844 274.175781 325.296875 288.132812 327.890625 303.335938 C 328.871094 312.945312 331.035156 320.320312 334.390625 325.460938 C 333.863281 325.832031 332.78125 325.808594 331.140625 325.398438 C 313.519531 316.074219 303.1875 308.636719 300.140625 303.085938 C 296.339844 294.859375 292.796875 286.941406 289.515625 279.335938 C 290.992188 287.546875 292.492188 294.128906 294.015625 299.085938 C 285.175781 289.398438 275.84375 282.0625 266.015625 277.085938 C 262.25 272.859375 257.789062 261.902344 252.640625 244.210938 C 252.285156 255.171875 253.160156 261.503906 255.265625 263.210938 C 252.972656 261.757812 250.890625 259.671875 249.015625 256.960938 C 246.613281 253.132812 243.964844 249.292969 241.066406 245.453125 C 239.417969 243.269531 237.984375 241.585938 236.714844 240.085938 C 237.253906 243.453125 237.445312 246.699219 237.527344 249.917969 C 237.546875 250.664062 237.558594 251.414062 237.570312 252.160156 C 237.667969 259.714844 237.453125 267.238281 240.011719 275.964844 C 235.5625 272.722656 231.394531 269.890625 227.511719 267.464844 C 230.78125 271.386719 234.449219 276.261719 238.511719 282.089844 C 239.515625 288.945312 239.378906 297.914062 238.097656 309.003906 C 238 309.828125 237.898438 310.664062 237.792969 311.507812 C 237.042969 317.390625 235.992188 323.832031 234.636719 330.839844 C 232.960938 337.507812 232.050781 344.09375 231.90625 350.589844 C 231.886719 351.425781 231.878906 352.257812 231.886719 353.089844 C 231.4375 352.695312 231.007812 352.195312 230.59375 351.605469 C 226.492188 345.789062 223.832031 331.257812 220.800781 324.304688 C 219.964844 322.382812 218.988281 320.714844 218.011719 319.148438 C 217.671875 318.605469 217.332031 318.070312 217 317.546875 C 215.394531 315.015625 213.921875 312.621094 213.21875 309.648438 C 212.621094 307.105469 214.894531 291.972656 215.636719 289.339844 C 213.1875 293.011719 211.230469 297.550781 209.761719 302.964844 C 208.273438 297.371094 207.570312 291.023438 206.886719 284.546875 C 206.753906 283.277344 206.621094 282.003906 206.484375 280.730469 C 206.136719 277.476562 205.753906 274.226562 205.242188 271.050781 C 205.097656 270.140625 204.941406 269.238281 204.773438 268.34375 C 204.675781 267.835938 204.578125 267.328125 204.472656 266.828125 C 203.488281 262.09375 202.472656 258.136719 201.425781 254.949219 C 200.835938 256.019531 200.199219 257.148438 199.511719 258.339844 C 196.984375 263.167969 193.777344 270.628906 189.886719 280.714844 C 188.511719 284.78125 186.304688 289.03125 183.261719 293.464844 C 181.527344 285.324219 179.234375 280.03125 176.386719 277.589844 C 179.828125 290.660156 179.703125 300.203125 176.011719 306.214844 C 171.464844 310.21875 167.480469 314.640625 164.066406 319.480469 C 157.929688 328.171875 155.378906 337.644531 148.511719 345.714844 C 145.164062 339.273438 143.289062 330.6875 142.886719 319.964844 C 142.90625 304.035156 142.570312 293.160156 141.886719 287.339844 C 141.453125 280.339844 141.285156 275.550781 141.386719 272.964844 C 145.109375 266.285156 149.441406 260.285156 154.386719 254.964844 C 150.792969 257.253906 147 260.085938 143.011719 263.464844 C 143.121094 261.648438 143.296875 260.058594 143.527344 258.628906 C 140.707031 261.703125 138.589844 264.433594 136.742188 267.308594 C 136.25 268.078125 135.777344 268.855469 135.316406 269.652344 C 133.507812 272.765625 131.867188 276.183594 129.90625 280.460938 C 128.867188 282.722656 127.613281 284.828125 126.152344 286.78125 C 125.148438 282.226562 123.613281 277.847656 121.542969 273.640625 C 121.796875 277.886719 121.980469 283.507812 122.101562 290.507812 C 121.539062 292.246094 119.199219 294.558594 115.078125 297.441406 C 114.59375 297.78125 114.082031 298.128906 113.546875 298.480469 C 112.191406 299.382812 110.675781 300.335938 109 301.339844 C 102.34375 306.058594 95.738281 311.1875 89.183594 316.722656 C 88.53125 317.277344 87.878906 317.832031 87.226562 318.390625 C 87.644531 317.324219 88.0625 316.179688 88.480469 314.957031 C 91.179688 307.097656 93.933594 296.042969 96.75 281.789062 L 96.976562 280.636719 C 97.035156 280.378906 97.089844 280.125 97.148438 279.871094 C 100.015625 266.910156 102.523438 258.347656 104.671875 254.183594 C 106.996094 251.886719 110.382812 248.195312 114.824219 243.113281 C 111.90625 244.621094 108.648438 246.140625 105.046875 247.671875 C 108.460938 243.707031 111.324219 238.949219 113.632812 233.398438 C 113.933594 232.679688 114.222656 231.945312 114.507812 231.195312 C 114.726562 230.609375 114.941406 230.015625 115.152344 229.414062 C 117.050781 225.199219 118.644531 221.738281 119.9375 219.03125 C 119.421875 219.210938 118.910156 219.363281 118.402344 219.484375 C 120.070312 212.8125 120.914062 206.5 120.933594 200.546875 C 119.34375 208.476562 116.371094 216.328125 112.007812 224.109375 C 112.007812 224.109375 109.367188 225.269531 104.089844 227.589844 C 103.660156 227.546875 104.59375 223.699219 106.886719 216.050781 C 98.765625 231.972656 91.445312 232.433594 76.484375 235.746094 C 66.996094 237.851562 57.335938 244.15625 49.097656 244.878906 C 57.992188 236.058594 61.101562 225.714844 69.316406 218.78125 C 72.972656 215.699219 77.480469 213.015625 82.835938 210.738281 C 77.242188 211.527344 74.445312 211.921875 74.445312 211.921875 C 82.359375 207.25 84.679688 201.226562 92.910156 197.519531 C 100.070312 194.292969 108.476562 194.480469 114.609375 190.011719 C 110.496094 190.503906 105.578125 190.8125 99.851562 190.9375 C 104.828125 188.144531 109.566406 184.753906 114.070312 180.757812 C 107.773438 181.839844 103.226562 184.148438 95.191406 182.710938 C 99.175781 178.855469 102.480469 173.949219 105.097656 167.996094 C 101.335938 172.765625 95.445312 177.597656 87.421875 182.488281 C 86.195312 182.660156 84.558594 182.464844 82.515625 181.902344 C 82.25 181.832031 81.984375 181.765625 81.71875 181.703125 C 78.871094 181.007812 76.011719 180.496094 73.140625 180.160156 C 72.429688 180.078125 71.71875 180.007812 71.003906 179.945312 C 70.703125 179.921875 70.402344 179.898438 70.097656 179.875 C 62.527344 179.328125 55.214844 180.683594 47.726562 179.273438 C 51.195312 175.699219 54.042969 172.113281 56.269531 168.515625 C 52.914062 170.949219 48.324219 173.660156 42.5 176.648438 C 41.203125 177.167969 39.222656 177.226562 36.558594 176.824219 C 29.886719 175.820312 24.613281 173.414062 17.386719 172.769531 C 12.644531 172.34375 7.574219 172.433594 2.171875 173.03125 C 1.453125 173.113281 0.730469 173.199219 0 173.296875 C 0.820312 172.609375 1.625 171.933594 2.421875 171.273438 C 14.121094 161.546875 23.15625 154.863281 29.527344 151.234375 C 30.140625 150.882812 30.734375 150.558594 31.300781 150.261719 C 34.460938 148.621094 36.84375 147.867188 38.445312 148.003906 C 49.410156 148.480469 57.015625 148.980469 61.261719 149.511719 C 52.507812 145.929688 48.132812 144.136719 48.132812 144.136719 C 51.632812 143.207031 53.386719 142.742188 53.386719 142.742188 C 59.460938 143.734375 66.195312 144.824219 73.59375 146.015625 C 68.675781 143.769531 64.382812 142.027344 60.714844 140.789062 C 64.414062 140.359375 67.363281 139.710938 69.988281 138.957031 C 75.460938 137.390625 79.515625 135.375 85.96875 133.921875 C 86.734375 133.75 87.492188 133.597656 88.238281 133.464844 C 89.074219 133.316406 89.898438 133.191406 90.710938 133.089844 C 98.050781 132.160156 104.488281 132.949219 111.289062 133.1875 C 118.726562 130.953125 125.273438 127.851562 130.9375 123.890625 C 120.226562 127.332031 108.328125 128.121094 95.246094 126.265625 C 91.386719 122.464844 87.308594 119.234375 83.011719 116.574219 C 80.070312 114.632812 77.496094 112.789062 75.289062 111.054688 C 71.460938 108.039062 67.136719 102.164062 63.292969 100.765625 C 68.6875 101.050781 73.609375 100.136719 78.066406 98.015625 C 72.050781 98.320312 65.589844 97.714844 58.679688 96.203125 C 45.703125 85.855469 39.054688 71.089844 21.246094 62.828125 C 29.890625 61.679688 41.746094 61.847656 56.808594 63.324219 C 58.597656 64.25 60.703125 66.5625 63.125 70.261719 C 62.796875 67.960938 62.207031 65.792969 61.351562 63.761719 C 64.53125 63.574219 74.355469 68.078125 78.4375 69.222656 C 85.9375 71.316406 91.824219 71.347656 98.910156 72.679688 C 100.300781 72.941406 101.484375 73.269531 102.464844 73.671875 C 106.089844 76.109375 109.96875 80.820312 114.09375 87.796875 C 113.460938 83.511719 112.65625 80.011719 111.6875 77.296875 C 111.6875 77.296875 113.695312 78.003906 117.703125 79.421875 C 120.417969 81.617188 123.402344 88.828125 126.660156 101.046875 C 127.105469 93.910156 126.617188 88.242188 125.191406 84.046875 C 128.699219 84.726562 132.265625 86.4375 135.886719 89.171875 C 137.136719 90.273438 138.398438 91.316406 139.664062 92.300781 C 138.796875 90.894531 138.097656 89.519531 137.640625 88.148438 C 144.878906 89.375 151.675781 89.796875 158.03125 89.425781 C 149.457031 88.363281 140.863281 85.914062 132.257812 82.074219 C 132.257812 82.074219 130.832031 79.519531 127.980469 74.40625 C 127.996094 73.972656 132.167969 74.648438 140.492188 76.433594 C 124.632812 70.0625 122.269531 63.511719 118.578125 51.46875 C 118.460938 51.085938 118.34375 50.695312 118.222656 50.300781 L 117.988281 49.535156 C 117.773438 48.839844 117.554688 48.125 117.328125 47.394531 C 114.613281 38.695312 107.984375 30.089844 106.003906 22.339844 C 105.859375 21.78125 105.742188 21.222656 105.652344 20.671875 C 106.59375 21.449219 107.546875 22.175781 108.503906 22.859375 C 117.773438 29.46875 127.699219 32.109375 134.925781 39.121094 C 135.242188 39.429688 135.558594 39.746094 135.871094 40.070312 C 136.816406 41.046875 137.730469 42.085938 138.621094 43.191406 C 140.722656 45.796875 142.671875 48.761719 144.464844 52.085938 C 143.230469 46.554688 142.609375 43.792969 142.609375 43.792969 C 146.371094 48.9375 150.613281 51.472656 154.367188 55.058594 C 155.0625 55.722656 155.738281 56.421875 156.394531 57.175781 C 157.421875 58.363281 158.390625 59.695312 159.28125 61.261719 C 162.660156 67.191406 163.4375 74.195312 166.84375 79.742188 C 167.011719 78.339844 167.269531 76.757812 167.613281 75.007812 C 167.3125 72.757812 167.039062 70.34375 166.796875 67.757812 C 167.394531 68.617188 168.015625 69.46875 168.65625 70.308594 C 169.804688 65.5625 171.441406 59.875 173.5625 53.25 C 173.5625 53.25 176.769531 57.082031 183.1875 64.75 C 177.265625 55.660156 174.515625 49.035156 174.9375 44.875 C 179.773438 36.078125 185.1875 21.121094 191.1875 -0.00390625 C 192.945312 7.867188 195.65625 15.035156 199.308594 21.5 C 200.535156 25.304688 199.910156 30.636719 197.433594 37.5 C 199.210938 34.875 201.085938 32.710938 203.058594 31 C 203.078125 33.75 205.953125 44.898438 211.6875 64.4375 C 212.066406 66.453125 210.691406 70.328125 207.5625 76.058594 C 209.269531 74.183594 211.226562 72.226562 213.4375 70.1875 C 213.664062 72.484375 214.695312 77.246094 216.53125 84.472656 C 217.507812 83.242188 218.429688 81.910156 219.296875 80.480469 C 219.714844 79.785156 220.125 79.066406 220.519531 78.324219 C 222.601562 74.410156 224.324219 69.84375 225.683594 64.625 C 226.46875 61.609375 227.21875 59.070312 227.933594 57 C 228.953125 61.265625 230.328125 66.347656 232.058594 72.25 C 231.882812 62.53125 232.550781 54.78125 234.058594 49 C 234.765625 47.460938 235.824219 45.761719 237.246094 43.898438 C 237.664062 43.347656 238.117188 42.78125 238.601562 42.199219 C 239.515625 41.101562 240.542969 39.949219 241.683594 38.75 C 250.371094 30.148438 258.152344 18.464844 265.023438 3.703125 C 265.453125 2.773438 265.882812 1.828125 266.308594 0.875 C 266.332031 2.15625 266.347656 3.414062 266.363281 4.644531 C 266.484375 16.242188 266.214844 25.617188 265.554688 32.773438 C 265.476562 33.589844 265.398438 34.378906 265.3125 35.136719 C 265.03125 37.605469 264.699219 39.769531 264.308594 41.625 C 263.433594 44.140625 260.515625 47.847656 255.558594 52.75 C 259.425781 49.988281 262.257812 47.988281 264.058594 46.75 C 263.386719 50.023438 263.074219 53.191406 263.121094 56.25 C 262.960938 58.25 262.535156 60.234375 261.851562 62.210938 C 261.519531 63.171875 261.125 64.128906 260.671875 65.078125 C 258.761719 69.082031 255.765625 73.035156 251.683594 76.9375 C 254.773438 75.113281 257.003906 73.78125 258.371094 72.9375 C 258.121094 73.75 257.867188 74.550781 257.605469 75.347656 C 259.570312 72.984375 262.113281 70.664062 264.929688 68.574219 C 274.882812 61.191406 277.132812 56.351562 282.117188 52.785156 C 281.300781 55.75 280.195312 59.5625 278.808594 64.222656 C 282.023438 59.234375 286.285156 53.628906 291.597656 47.410156 C 294.40625 44.738281 306.203125 39.824219 326.992188 32.660156 C 335.476562 30.222656 342.515625 26.929688 348.117188 22.785156" fill="#181c3f"/></g><g id="change2_1"><path d="M 203.363281 226.636719 C 199.90625 222.601562 196.203125 218.835938 192.261719 215.335938 C 196.210938 220.523438 199.402344 225.464844 201.84375 230.152344 C 202.074219 229.597656 202.308594 229.039062 202.550781 228.484375 C 202.8125 227.867188 203.085938 227.253906 203.363281 226.636719 Z M 212.707031 212.621094 C 213.003906 213.152344 213.296875 213.691406 213.589844 214.246094 C 213.488281 213.40625 213.390625 212.566406 213.296875 211.734375 C 213.097656 212.027344 212.902344 212.324219 212.707031 212.621094 Z M 212.714844 206.316406 C 209.910156 203.910156 206.84375 201.960938 203.511719 200.460938 C 206.429688 203.074219 209.214844 206.644531 211.875 211.164062 C 212.257812 210.589844 212.648438 210.019531 213.042969 209.453125 C 212.929688 208.402344 212.820312 207.355469 212.714844 206.316406 Z M 151.746094 227.109375 C 152.453125 225.71875 153.332031 224.628906 154.386719 223.839844 C 163.929688 216.136719 170.054688 211.097656 172.761719 208.714844 C 166.800781 212.199219 160.714844 215.574219 154.511719 218.839844 C 154.730469 216.691406 156.855469 212.152344 160.886719 205.214844 C 166.007812 196.960938 168.675781 191.878906 168.886719 189.964844 C 170.183594 187.550781 175.558594 184.050781 185.011719 179.464844 C 182.234375 179.40625 179.023438 179.863281 175.386719 180.839844 C 180.558594 173.824219 186.222656 168.601562 192.378906 165.171875 C 186.703125 168.035156 181.035156 171.894531 175.371094 176.738281 C 166.324219 184.480469 157.289062 194.75 148.273438 207.546875 C 147.875 208.109375 147.480469 208.675781 147.09375 209.238281 C 149.160156 214.078125 150.710938 220.035156 151.746094 227.109375 Z M 250.347656 184.105469 C 249.433594 184.207031 248.492188 184.324219 247.515625 184.457031 C 248.613281 184.699219 249.695312 184.945312 250.753906 185.191406 Z M 247.355469 171.824219 C 252.699219 175.148438 258.125 179.191406 263.640625 183.957031 C 260.742188 183.457031 256.785156 183.457031 251.765625 183.953125 C 251.972656 184.496094 252.175781 185.039062 252.375 185.570312 C 258.339844 186.984375 263.679688 188.449219 268.390625 189.957031 C 273.210938 193.5625 277.003906 197.398438 279.765625 201.457031 C 276.515625 200.957031 272.890625 200.957031 268.890625 201.457031 C 275.636719 203.425781 280.71875 205.550781 284.140625 207.832031 C 285.679688 210.421875 287.324219 212.984375 289.074219 215.519531 C 288.773438 214.621094 288.476562 213.710938 288.1875 212.785156 C 285.84375 205.347656 283.800781 196.984375 282.0625 187.691406 C 276.644531 183.339844 271.292969 179.503906 266.007812 176.1875 C 261.027344 173.0625 256.105469 170.402344 251.25 168.203125 C 251.222656 168.195312 251.195312 168.183594 251.167969 168.167969 C 250.199219 167.730469 249.234375 167.3125 248.273438 166.910156 C 247.253906 166.488281 246.234375 166.085938 245.222656 165.703125 C 245.945312 167.800781 246.65625 169.839844 247.355469 171.824219 Z M 214.484375 160.394531 C 224.476562 160.921875 234.8125 164.355469 245.496094 170.691406 C 244.859375 168.871094 244.210938 167.003906 243.554688 165.089844 C 237.515625 162.9375 231.570312 161.515625 225.71875 160.824219 C 221.933594 160.375 218.191406 160.234375 214.484375 160.394531 Z M 258.992188 165.144531 C 252.46875 162.664062 245.980469 160.171875 239.367188 159.003906 C 230.847656 157.496094 222.054688 157.488281 212.988281 158.976562 C 217.234375 158.703125 221.523438 158.820312 225.863281 159.335938 C 233.351562 160.222656 240.980469 162.28125 248.753906 165.511719 C 249.671875 165.894531 250.59375 166.292969 251.519531 166.707031 C 253.953125 166.039062 256.445312 165.519531 258.992188 165.144531 Z M 294.691406 174.824219 C 288.78125 168.691406 284.777344 163.992188 282.683594 160.734375 C 285.355469 166.621094 287.945312 170.957031 290.449219 173.734375 C 288.269531 173.191406 286.023438 172.542969 283.710938 171.796875 C 278.230469 166.539062 274.328125 162.226562 272.007812 158.859375 C 273.6875 162.867188 276.324219 167.484375 278.601562 171.140625 C 272.960938 170.199219 267.457031 168.320312 261.996094 166.28125 C 261.5625 166.324219 261.125 166.371094 260.695312 166.425781 C 258.304688 166.714844 255.957031 167.140625 253.65625 167.695312 C 257.960938 169.742188 262.304688 172.136719 266.6875 174.886719 C 269.007812 176.339844 271.339844 177.894531 273.683594 179.546875 C 277.824219 178.277344 282.15625 177.175781 286.671875 176.25 C 289.28125 175.71875 291.957031 175.242188 294.691406 174.824219 Z M 274.367188 142.558594 C 273.894531 142.890625 273.433594 143.222656 272.980469 143.542969 C 273.828125 143.429688 274.695312 143.308594 275.574219 143.183594 C 275.171875 142.976562 274.773438 142.769531 274.367188 142.558594 Z M 219.402344 149.328125 C 233.011719 141.003906 247.839844 136.59375 263.890625 136.097656 C 261.058594 134.109375 258.199219 131.90625 255.316406 129.492188 C 241.554688 135.589844 229.539062 142.21875 219.402344 149.328125 Z M 271.863281 107.140625 C 262.273438 111.023438 257.757812 115.617188 248.882812 122.476562 C 239.15625 129.996094 226.898438 139.667969 214.308594 151.238281 C 225.457031 142.808594 239.136719 135.027344 255.136719 127.957031 C 255.152344 127.949219 255.171875 127.941406 255.1875 127.933594 C 258.0625 126.664062 261.007812 125.421875 264.027344 124.199219 C 265.433594 120.484375 266.921875 116.980469 268.484375 113.691406 C 269.570312 111.414062 270.695312 109.230469 271.863281 107.140625 Z M 247.535156 87.460938 C 247.496094 90.140625 247.527344 92.917969 247.636719 95.785156 C 249.570312 91.863281 251.070312 88.128906 252.484375 84.75 C 250.847656 85.683594 249.199219 86.585938 247.535156 87.460938 Z M 217.164062 125.480469 C 216.449219 131.074219 215.503906 136.101562 214.320312 140.558594 C 216.820312 135.589844 219.789062 130.269531 224.085938 123.890625 C 228.566406 117.238281 231.445312 109.875 235.800781 102.757812 C 238.332031 98.625 241.25 95.394531 243.964844 91.515625 C 244.777344 90.355469 245.492188 89.25 246.117188 88.195312 C 245.199219 88.667969 244.273438 89.132812 243.34375 89.585938 C 238.539062 91.9375 233.621094 94.054688 228.585938 95.941406 C 227.765625 97.878906 226.960938 99.820312 226.160156 101.773438 C 226.152344 101.800781 226.140625 101.828125 226.128906 101.855469 C 225.6875 102.933594 225.25 104.007812 224.816406 105.089844 C 222.148438 111.746094 219.597656 118.507812 217.164062 125.480469 Z M 176.285156 99.070312 C 178.359375 100.359375 180.65625 101.753906 183.1875 103.246094 C 180.648438 100.417969 178.363281 97.757812 176.335938 95.269531 C 176.328125 96.515625 176.3125 97.78125 176.285156 99.070312 Z M 150.714844 159.570312 C 149.40625 159.324219 148.101562 159.039062 146.792969 158.707031 C 145.738281 158.4375 144.765625 158.175781 143.859375 157.917969 L 142.863281 157.933594 C 137.308594 164.136719 132.117188 169.417969 127.28125 173.777344 C 124.570312 176.226562 121.972656 178.382812 119.488281 180.246094 C 121.875 180.199219 124.371094 180.359375 126.976562 180.722656 C 127.71875 180.75 128.5 180.75 129.320312 180.726562 C 132.828125 178.027344 136.4375 174.832031 140.144531 171.140625 C 143.589844 167.703125 147.113281 163.847656 150.714844 159.570312 Z M 171.738281 111.667969 C 171.128906 109.601562 170.425781 107.359375 169.625 104.945312 L 168.828125 103.5625 C 164.003906 103.199219 159.691406 102.765625 155.894531 102.269531 C 158.410156 104.929688 161.546875 110.4375 165.296875 118.796875 C 165.003906 113.40625 164.203125 108.945312 162.890625 105.421875 C 165.535156 106.726562 168.484375 108.808594 171.738281 111.667969 Z M 199.308594 21.5 C 200.535156 25.304688 199.910156 30.636719 197.433594 37.5 C 199.210938 34.875 201.085938 32.710938 203.058594 31 C 203.078125 33.75 205.953125 44.898438 211.6875 64.4375 C 212.066406 66.453125 210.691406 70.328125 207.5625 76.058594 C 209.269531 74.183594 211.226562 72.226562 213.4375 70.1875 C 213.730469 73.144531 215.355469 80.1875 218.3125 91.3125 C 217.503906 97.3125 214.460938 105.0625 209.1875 114.5625 C 212.410156 111.519531 215.574219 107.976562 218.6875 103.9375 C 218.550781 109.335938 218.273438 114.390625 217.851562 119.09375 C 219.648438 114.15625 221.507812 109.316406 223.429688 104.53125 C 223.832031 103.523438 224.238281 102.519531 224.648438 101.515625 C 222.996094 96.867188 221.671875 92.324219 220.671875 87.890625 C 220.105469 85.382812 219.648438 82.910156 219.296875 80.476562 C 219.714844 79.785156 220.121094 79.066406 220.519531 78.324219 C 220.886719 81.34375 221.425781 84.425781 222.132812 87.5625 C 223 91.414062 224.125 95.371094 225.507812 99.425781 C 228.097656 93.164062 230.789062 86.972656 233.585938 80.761719 C 233.597656 80.734375 233.609375 80.707031 233.621094 80.679688 C 235.84375 75.753906 238.132812 70.8125 240.484375 65.8125 C 239.664062 61.855469 238.972656 57.855469 238.398438 53.820312 C 237.933594 50.53125 237.546875 47.222656 237.246094 43.898438 C 237.664062 43.347656 238.117188 42.78125 238.601562 42.199219 C 238.921875 46.050781 239.347656 49.855469 239.882812 53.613281 C 240.355469 56.953125 240.910156 60.261719 241.554688 63.546875 C 243.054688 60.367188 244.585938 57.164062 246.140625 53.925781 C 247.21875 51.675781 248.003906 50.0625 248.785156 48.453125 C 253.1875 39.410156 257.511719 30.527344 260.625 20.863281 C 261.765625 17.320312 262.726562 13.863281 263.535156 10.511719 C 264.09375 8.203125 264.585938 5.929688 265.019531 3.703125 C 265.453125 2.773438 265.882812 1.828125 266.308594 0.875 C 266.332031 2.15625 266.347656 3.414062 266.363281 4.644531 C 265.957031 6.667969 265.503906 8.738281 264.988281 10.859375 C 264.167969 14.257812 263.199219 17.746094 262.050781 21.320312 C 259.621094 28.859375 256.488281 35.882812 253.15625 42.863281 C 255.289062 41.453125 257.265625 40.03125 259.085938 38.597656 C 261.503906 36.695312 263.628906 34.78125 265.453125 32.859375 C 265.484375 32.828125 265.519531 32.796875 265.554688 32.773438 C 265.476562 33.589844 265.398438 34.378906 265.3125 35.136719 C 263.726562 36.695312 261.960938 38.242188 260.011719 39.777344 C 257.613281 41.667969 254.914062 43.554688 251.917969 45.433594 C 251.328125 46.660156 250.730469 47.882812 250.136719 49.109375 C 249.152344 51.125 248.167969 53.152344 247.488281 54.570312 C 245.605469 58.488281 243.761719 62.355469 241.960938 66.1875 C 241.949219 66.210938 241.9375 66.234375 241.925781 66.253906 C 239.863281 70.636719 237.851562 74.972656 235.890625 79.300781 C 241.183594 76.378906 245.988281 73.496094 250.304688 70.65625 C 254.632812 67.808594 258.480469 64.996094 261.851562 62.210938 C 261.519531 63.171875 261.125 64.128906 260.671875 65.078125 C 257.796875 67.332031 254.617188 69.605469 251.125 71.90625 C 246.28125 75.089844 240.863281 78.3125 234.863281 81.566406 C 232.992188 85.722656 231.171875 89.867188 229.394531 94.035156 C 233.921875 92.296875 238.351562 90.363281 242.6875 88.242188 C 244.269531 87.46875 245.839844 86.667969 247.398438 85.839844 C 247.460938 85.71875 247.519531 85.597656 247.578125 85.472656 L 247.570312 85.75 C 249.554688 84.695312 251.515625 83.601562 253.457031 82.460938 C 253.859375 81.539062 254.257812 80.648438 254.667969 79.796875 C 256.5 75.972656 260.355469 71.96875 264.929688 68.574219 C 274.882812 61.191406 277.132812 56.351562 282.117188 52.785156 C 281.300781 55.75 280.195312 59.5625 278.808594 64.222656 C 282.023438 59.234375 286.285156 53.628906 291.597656 47.410156 C 294.40625 44.738281 306.203125 39.824219 326.992188 32.660156 C 335.476562 30.222656 342.515625 26.929688 348.117188 22.785156 C 343.890625 33.59375 340.425781 41.925781 337.726562 47.785156 C 333.621094 50.855469 326.730469 54.6875 317.058594 59.285156 C 323.488281 58.722656 328.539062 57.785156 332.214844 56.476562 C 328.335938 62.890625 325.175781 67.285156 322.738281 69.664062 C 314.867188 73.160156 308.113281 75.617188 302.472656 77.039062 C 306.390625 77.34375 311.246094 77.28125 317.03125 76.851562 C 311.429688 84.359375 303.855469 92.535156 294.304688 101.378906 C 295.332031 98.953125 296.371094 97.089844 297.417969 95.789062 C 291.925781 97.996094 287.28125 100.285156 283.488281 102.664062 C 281.90625 105.734375 280.421875 108.714844 279.03125 111.601562 C 280.289062 106.269531 280.917969 103.601562 280.917969 103.601562 C 278.71875 104.53125 276.441406 105.425781 274.082031 106.285156 L 273.929688 106.34375 C 272.457031 108.871094 271.050781 111.550781 269.699219 114.382812 C 268.324219 117.277344 267.015625 120.3125 265.777344 123.496094 C 271.234375 121.324219 276.925781 119.230469 282.84375 117.214844 C 286.238281 116.058594 289.710938 114.925781 293.257812 113.816406 L 293.289062 113.808594 C 295.5625 113.097656 297.863281 112.398438 300.195312 111.714844 C 303.550781 106.714844 306.914062 102.339844 310.289062 98.582031 C 312.253906 96.394531 314.226562 94.414062 316.199219 92.648438 L 319.054688 92.09375 C 316.457031 94.226562 313.859375 96.742188 311.265625 99.628906 C 308.28125 102.953125 305.300781 106.773438 302.324219 111.09375 C 314.847656 107.464844 328.222656 104.140625 342.394531 101.140625 L 342.410156 101.136719 L 342.429688 101.132812 C 345.675781 100.445312 348.960938 99.777344 352.289062 99.125 C 354.675781 96.085938 357.230469 93.355469 359.957031 90.9375 C 361.660156 89.429688 363.429688 88.042969 365.265625 86.777344 C 366.054688 86.824219 366.855469 86.878906 367.660156 86.941406 C 365.269531 88.457031 362.988281 90.175781 360.820312 92.097656 C 358.578125 94.082031 356.457031 96.285156 354.449219 98.703125 C 369.433594 95.816406 385.242188 93.269531 401.820312 91.085938 C 403.230469 91.183594 404.628906 91.253906 406.007812 91.289062 C 405.429688 91.550781 404.777344 91.886719 404.050781 92.300781 C 382.988281 95.027344 363.15625 98.335938 344.675781 102.1875 C 350.113281 105.0625 355.5625 107.390625 361.011719 109.164062 C 366.496094 110.953125 371.988281 112.1875 377.476562 112.855469 C 376.855469 113.308594 376.238281 113.726562 375.617188 114.117188 C 370.609375 113.398438 365.609375 112.226562 360.617188 110.601562 C 354.558594 108.625 348.5 105.976562 342.449219 102.65625 C 325.5625 106.234375 309.816406 110.273438 295.296875 114.742188 C 305.433594 120.519531 314.277344 124.984375 321.839844 128.132812 C 328.367188 130.851562 333.921875 132.585938 338.503906 133.328125 C 337.433594 133.617188 336.34375 133.902344 335.21875 134.199219 C 331.199219 133.265625 326.574219 131.710938 321.351562 129.535156 C 313.433594 126.234375 304.109375 121.503906 293.382812 115.335938 C 291.53125 115.914062 289.695312 116.503906 287.882812 117.097656 C 296.375 123.109375 304.015625 127.949219 310.804688 131.605469 C 315.5625 134.167969 319.902344 136.152344 323.816406 137.550781 C 323.082031 137.800781 322.347656 138.050781 321.613281 138.308594 C 318.113281 136.949219 314.308594 135.160156 310.199219 132.945312 C 303.109375 129.128906 295.097656 124.03125 286.167969 117.660156 C 285.191406 117.988281 284.214844 118.3125 283.25 118.644531 C 273.839844 121.851562 265.011719 125.253906 256.792969 128.84375 C 260.027344 131.519531 263.226562 133.921875 266.390625 136.054688 C 271.5625 136.023438 276.863281 136.394531 282.285156 137.167969 C 279.925781 138.730469 277.738281 140.210938 275.726562 141.609375 C 276.53125 142.023438 277.335938 142.417969 278.136719 142.796875 C 284.824219 141.753906 292.277344 140.335938 300.496094 138.542969 C 310.503906 139.605469 320.210938 141.269531 329.613281 143.542969 C 325.65625 145.542969 321.699219 147.542969 317.738281 149.542969 C 326.617188 147.578125 334.113281 146.289062 340.234375 145.667969 C 342.621094 146.332031 344.714844 147.082031 346.515625 147.921875 C 342.09375 149.183594 338.019531 151.039062 334.296875 153.480469 C 343.371094 151.179688 351.613281 150.847656 359.019531 152.484375 C 371.179688 156.722656 383.320312 163.015625 395.441406 171.359375 C 392.339844 172.503906 389.484375 173.878906 386.878906 175.484375 C 393.242188 174.425781 397.429688 174.257812 399.441406 174.984375 C 412.6875 184.882812 425.402344 195.71875 437.578125 207.484375 C 421.8125 204.941406 409.839844 205.886719 394.859375 204.46875 C 388.402344 203.859375 383.421875 202.90625 379.914062 201.609375 C 371.558594 197.128906 366.382812 193.796875 364.382812 191.609375 C 366.234375 194.824219 369.164062 198.011719 373.175781 201.171875 C 367.335938 200.164062 362.296875 198.425781 356.644531 197.1875 C 350.753906 195.894531 344.625 195.953125 339.09375 192.984375 C 333.488281 186.882812 329.890625 181.90625 328.300781 178.046875 C 329.722656 183.679688 331.1875 188.011719 332.699219 191.046875 C 326.742188 189.074219 321.742188 185.777344 315.628906 183.75 C 309.023438 181.5625 302.03125 180.0625 296.039062 176.132812 C 292.921875 176.585938 289.882812 177.117188 286.925781 177.722656 C 282.875 178.550781 278.96875 179.523438 275.210938 180.640625 C 278.480469 183 281.777344 185.550781 285.09375 188.296875 L 285.09375 188.300781 C 289.925781 192.3125 294.546875 196.0625 298.949219 199.546875 C 299.804688 200.222656 300.652344 200.890625 301.488281 201.542969 C 306.675781 200.179688 312.679688 199.414062 319.496094 199.246094 C 325.082031 199.109375 331.210938 199.371094 337.882812 200.035156 C 338.273438 200.570312 338.667969 201.113281 339.0625 201.660156 C 331.925781 200.902344 325.410156 200.597656 319.523438 200.742188 C 313.316406 200.894531 307.800781 201.550781 302.976562 202.707031 C 304.390625 203.804688 305.777344 204.871094 307.136719 205.90625 C 311.953125 205.152344 317.574219 204.847656 323.996094 204.996094 C 329.554688 205.121094 335.699219 205.585938 342.433594 206.386719 C 342.8125 206.929688 343.199219 207.480469 343.585938 208.035156 C 336.363281 207.136719 329.820312 206.621094 323.96875 206.488281 C 318.28125 206.359375 313.226562 206.589844 308.808594 207.175781 C 309.691406 207.839844 310.558594 208.492188 311.414062 209.128906 C 316.714844 213.066406 321.648438 216.367188 326.324219 219.492188 C 337.011719 226.640625 346.332031 232.875 355.996094 244.074219 C 358.902344 244.480469 361.554688 245.140625 363.949219 246.058594 C 365.011719 246.46875 366.023438 246.925781 366.984375 247.433594 C 367.089844 247.8125 367.199219 248.175781 367.304688 248.519531 C 367.40625 248.835938 367.507812 249.152344 367.613281 249.46875 C 366.347656 248.703125 364.976562 248.039062 363.5 247.472656 C 361.660156 246.765625 359.652344 246.21875 357.476562 245.828125 C 358.878906 247.523438 360.292969 249.332031 361.722656 251.269531 C 364.871094 255.539062 368.105469 260.820312 371.070312 266.332031 C 373.148438 270.191406 375.09375 274.160156 376.789062 277.972656 C 376.894531 278.832031 376.976562 279.703125 377.027344 280.582031 C 376.644531 280.15625 376.253906 279.730469 375.859375 279.308594 C 374.113281 275.320312 372.074219 271.140625 369.894531 267.085938 C 366.964844 261.644531 363.769531 256.425781 360.65625 252.207031 C 358.816406 249.707031 356.992188 247.425781 355.183594 245.316406 L 355.171875 245.304688 L 355.160156 245.289062 C 347.382812 236.238281 339.820312 230.445312 331.570312 224.789062 C 333.058594 231.046875 334.390625 236.332031 335.570312 240.644531 C 336.5 244.046875 337.324219 246.808594 338.042969 248.933594 C 337.453125 248.589844 336.859375 248.253906 336.261719 247.925781 C 335.65625 246.023438 334.988281 243.738281 334.257812 241.070312 C 333 236.46875 331.542969 230.65625 329.886719 223.640625 C 328.484375 222.691406 327.0625 221.738281 325.609375 220.769531 C 320.945312 217.648438 316.019531 214.355469 310.648438 210.363281 C 309.332031 209.382812 307.988281 208.375 306.621094 207.335938 C 306.59375 207.316406 306.566406 207.296875 306.539062 207.273438 C 304.726562 205.894531 302.875 204.464844 300.976562 202.980469 C 300.960938 202.96875 300.941406 202.953125 300.921875 202.9375 C 300.007812 202.222656 299.085938 201.496094 298.152344 200.757812 C 293.773438 197.292969 289.144531 193.539062 284.269531 189.492188 L 283.710938 189.03125 C 285.367188 197.589844 287.289062 205.347656 289.480469 212.300781 C 290.28125 214.839844 291.117188 217.269531 291.988281 219.589844 C 294.90625 223.523438 298.082031 227.398438 301.515625 231.207031 C 296.769531 230.371094 291.476562 230.371094 285.640625 231.207031 C 293.980469 232.613281 300.394531 234.863281 304.890625 237.960938 C 309.589844 246.503906 312.878906 251.628906 314.765625 253.335938 C 308.355469 250.972656 301.957031 248.953125 295.574219 247.273438 C 305.945312 251.460938 313.382812 256.191406 317.890625 261.460938 C 321.964844 274.175781 325.296875 288.132812 327.890625 303.335938 C 328.871094 312.945312 331.035156 320.320312 334.390625 325.460938 C 333.863281 325.832031 332.78125 325.808594 331.140625 325.398438 C 313.519531 316.074219 303.1875 308.636719 300.140625 303.085938 C 296.339844 294.859375 292.796875 286.941406 289.515625 279.335938 C 290.992188 287.546875 292.492188 294.128906 294.015625 299.085938 C 285.175781 289.398438 275.84375 282.0625 266.015625 277.085938 C 262.25 272.859375 257.789062 261.902344 252.640625 244.210938 C 252.285156 255.171875 253.160156 261.503906 255.265625 263.210938 C 252.972656 261.757812 250.890625 259.671875 249.015625 256.960938 C 246.613281 253.132812 243.964844 249.292969 241.066406 245.453125 C 235.105469 237.554688 231.925781 236.195312 229.355469 226.3125 C 227.859375 220.566406 226.953125 214.699219 226.640625 208.710938 C 226.023438 211.527344 225.523438 215.195312 225.140625 219.710938 C 221.539062 215.609375 217.96875 209.363281 214.429688 200.976562 C 214.445312 202.980469 214.402344 205.019531 214.296875 207.082031 C 214.378906 207.902344 214.46875 208.722656 214.558594 209.546875 L 214.5625 209.59375 C 215.453125 217.777344 216.628906 226.292969 217.925781 234.835938 C 222.023438 237.046875 225.890625 239.613281 229.527344 242.535156 C 232.328125 244.78125 234.996094 247.246094 237.527344 249.917969 C 237.546875 250.664062 237.558594 251.414062 237.570312 252.160156 C 234.753906 249.066406 231.761719 246.246094 228.589844 243.699219 C 225.316406 241.070312 221.855469 238.734375 218.207031 236.695312 C 218.679688 239.761719 219.160156 242.828125 219.652344 245.878906 L 219.65625 245.894531 L 219.65625 245.914062 C 220.039062 248.289062 220.425781 250.660156 220.8125 253.015625 L 220.816406 253.019531 L 220.816406 253.039062 L 220.820312 253.054688 C 221.261719 255.753906 221.707031 258.433594 222.144531 261.085938 C 223.777344 270.933594 225.339844 280.371094 226.554688 288.851562 L 227.34375 294.320312 L 227.664062 296.53125 C 230.355469 298.808594 232.78125 301.390625 234.945312 304.277344 C 236.070312 305.773438 237.117188 307.351562 238.097656 309.003906 C 238 309.828125 237.898438 310.664062 237.792969 311.507812 C 236.570312 309.25 235.222656 307.136719 233.75 305.171875 C 232.011719 302.855469 230.09375 300.738281 227.996094 298.816406 C 228.28125 300.804688 228.5625 302.789062 228.839844 304.789062 C 230.207031 314.652344 230.339844 322.007812 230.484375 330.070312 C 230.550781 333.703125 230.617188 337.480469 230.804688 341.738281 C 230.90625 344.027344 231.175781 346.449219 231.546875 348.652344 C 231.65625 349.324219 231.777344 349.972656 231.90625 350.589844 C 231.886719 351.425781 231.878906 352.257812 231.886719 353.089844 C 231.4375 352.695312 231.007812 352.195312 230.59375 351.605469 C 230.402344 350.757812 230.226562 349.847656 230.070312 348.898438 C 229.691406 346.648438 229.414062 344.160156 229.3125 341.800781 C 229.125 337.574219 229.054688 333.761719 228.988281 330.09375 C 228.84375 322.089844 228.714844 314.785156 227.359375 304.992188 C 227.101562 303.144531 226.832031 301.253906 226.558594 299.332031 C 224.695312 302.980469 222.980469 306.664062 221.410156 310.386719 C 220.191406 313.277344 219.058594 316.199219 218.011719 319.148438 C 217.671875 318.605469 217.332031 318.070312 217 317.546875 C 217.945312 314.945312 218.953125 312.367188 220.035156 309.808594 C 221.894531 305.398438 223.945312 301.058594 226.191406 296.789062 L 225.863281 294.53125 L 225.074219 289.0625 C 223.851562 280.546875 222.292969 271.140625 220.667969 261.324219 C 220.332031 259.292969 219.992188 257.246094 219.652344 255.183594 C 217.019531 259.355469 214.632812 263.90625 212.496094 268.835938 C 210.390625 273.699219 208.519531 278.9375 206.886719 284.546875 C 206.753906 283.277344 206.621094 282.003906 206.484375 280.730469 C 207.878906 276.332031 209.425781 272.167969 211.125 268.246094 C 213.539062 262.671875 216.261719 257.585938 219.292969 252.984375 C 219.015625 251.285156 218.734375 249.582031 218.460938 247.871094 C 215.589844 251.757812 213.011719 255.734375 210.726562 259.800781 C 208.65625 263.480469 206.828125 267.230469 205.242188 271.050781 C 205.097656 270.140625 204.941406 269.238281 204.773438 268.34375 C 206.160156 265.203125 207.707031 262.113281 209.417969 259.070312 C 211.960938 254.546875 214.863281 250.128906 218.128906 245.816406 C 216.5625 236.0625 215.0625 226.171875 213.875 216.597656 C 213.796875 217.875 213.46875 219.496094 212.886719 221.464844 C 211.503906 228.101562 210.796875 233.019531 210.761719 236.214844 C 208.757812 233.332031 206.648438 230.5625 204.4375 227.910156 C 204.265625 228.296875 204.09375 228.6875 203.925781 229.078125 C 203.515625 230.027344 203.121094 230.980469 202.742188 231.929688 C 204.589844 235.734375 205.929688 239.371094 206.761719 242.839844 C 206.398438 245.414062 203.980469 250.578125 199.511719 258.339844 C 196.984375 263.167969 193.777344 270.628906 189.886719 280.714844 C 188.511719 284.78125 186.304688 289.03125 183.261719 293.464844 C 181.527344 285.324219 179.234375 280.03125 176.386719 277.589844 C 179.828125 290.660156 179.703125 300.203125 176.011719 306.214844 C 171.464844 310.21875 167.480469 314.640625 164.066406 319.480469 C 157.929688 328.171875 155.378906 337.644531 148.511719 345.714844 C 145.164062 339.273438 143.289062 330.6875 142.886719 319.964844 C 142.90625 304.035156 142.570312 293.160156 141.886719 287.339844 C 141.453125 280.339844 141.285156 275.550781 141.386719 272.964844 C 145.109375 266.285156 149.441406 260.285156 154.386719 254.964844 C 150.792969 257.253906 147 260.085938 143.011719 263.464844 C 143.636719 252.957031 146.574219 250.109375 148.824219 241.386719 C 149.789062 237.65625 149.683594 233.875 150.5625 230.351562 C 149.625 222.554688 148.109375 216.035156 146.015625 210.800781 C 140.28125 219.207031 135.503906 227.261719 131.21875 235.261719 C 132.734375 240.902344 133.972656 246.640625 134.929688 252.46875 C 135.730469 257.355469 136.335938 262.304688 136.742188 267.308594 C 136.25 268.078125 135.777344 268.855469 135.316406 269.652344 C 134.917969 263.914062 134.261719 258.265625 133.347656 252.695312 C 132.496094 247.511719 131.421875 242.390625 130.117188 237.335938 C 124.675781 247.683594 119.988281 257.972656 115.035156 268.847656 C 114.242188 270.589844 113.445312 272.347656 112.628906 274.125 C 113.34375 279.425781 113.941406 284.558594 114.414062 289.519531 C 114.667969 292.199219 114.890625 294.839844 115.078125 297.441406 C 114.59375 297.78125 114.082031 298.125 113.546875 298.480469 C 113.347656 295.605469 113.105469 292.660156 112.820312 289.65625 C 112.421875 285.492188 111.941406 281.226562 111.378906 276.859375 C 110.140625 279.554688 108.859375 282.320312 107.515625 285.175781 C 104.84375 290.863281 101.335938 297.230469 97.609375 303.453125 C 94.84375 308.066406 91.953125 312.605469 89.183594 316.722656 C 88.53125 317.277344 87.878906 317.832031 87.226562 318.390625 C 87.644531 317.324219 88.0625 316.179688 88.480469 314.957031 C 91.035156 311.121094 93.675781 306.957031 96.210938 302.726562 C 99.929688 296.523438 103.410156 290.195312 106.050781 284.582031 C 107.5 281.5 108.917969 278.429688 110.3125 275.386719 C 108.265625 276.191406 105.980469 277.195312 103.464844 278.398438 C 101.390625 279.390625 99.152344 280.523438 96.75 281.789062 L 96.976562 280.636719 L 97.144531 279.871094 C 99.121094 278.84375 100.988281 277.910156 102.742188 277.070312 C 105.945312 275.539062 108.765625 274.324219 111.207031 273.433594 C 112 271.703125 112.78125 269.980469 113.5625 268.269531 C 120.613281 252.785156 127.125 238.488281 136.039062 223.519531 C 130.699219 225.507812 125.976562 227.429688 121.871094 229.289062 C 118.761719 230.699219 116.015625 232.070312 113.632812 233.398438 C 113.933594 232.679688 114.222656 231.945312 114.507812 231.195312 C 116.511719 230.136719 118.738281 229.050781 121.179688 227.941406 C 125.757812 225.871094 131.125 223.707031 137.277344 221.457031 C 140.207031 216.644531 143.394531 211.753906 146.9375 206.722656 C 156.019531 193.832031 165.140625 183.46875 174.296875 175.632812 C 181.902344 169.128906 189.535156 164.367188 197.195312 161.351562 C 198.546875 161.351562 199.898438 161.398438 201.25 161.496094 C 200.867188 161.621094 200.484375 161.746094 200.101562 161.882812 C 200.867188 161.648438 201.640625 161.441406 202.421875 161.257812 C 185.246094 158.886719 168.9375 162.488281 152.484375 159.875 C 148.667969 164.449219 144.941406 168.542969 141.308594 172.164062 C 138.140625 175.320312 135.039062 178.121094 132 180.570312 C 137.777344 180.082031 145.183594 178.554688 154.222656 175.988281 C 155.195312 175.8125 156.15625 175.632812 157.105469 175.457031 C 152.636719 178.597656 148.167969 182.269531 143.699219 186.464844 C 135.425781 195.171875 128.753906 202.121094 123.691406 207.316406 C 130.28125 206.984375 133.574219 206.816406 133.574219 206.816406 C 128.054688 209.121094 124.367188 211.464844 122.515625 213.847656 C 121.867188 215.058594 121.007812 216.785156 119.9375 219.03125 C 119.421875 219.210938 118.910156 219.363281 118.402344 219.484375 C 120.070312 212.8125 120.914062 206.5 120.933594 200.546875 C 119.34375 208.476562 116.371094 216.328125 112.007812 224.109375 C 112.007812 224.109375 109.367188 225.269531 104.089844 227.589844 C 103.660156 227.546875 104.59375 223.699219 106.886719 216.050781 C 98.765625 231.972656 91.445312 232.433594 76.484375 235.746094 C 66.996094 237.851562 57.335938 244.15625 49.097656 244.878906 C 57.992188 236.058594 61.101562 225.714844 69.316406 218.78125 C 72.972656 215.699219 77.480469 213.015625 82.835938 210.738281 C 77.242188 211.527344 74.445312 211.921875 74.445312 211.921875 C 82.359375 207.25 84.679688 201.226562 92.910156 197.519531 C 100.070312 194.292969 108.476562 194.480469 114.609375 190.011719 C 110.496094 190.503906 105.578125 190.8125 99.851562 190.9375 C 104.828125 188.144531 109.566406 184.753906 114.070312 180.757812 C 114.90625 180.617188 115.765625 180.496094 116.671875 180.40625 C 119.65625 178.292969 122.824219 175.722656 126.175781 172.699219 C 130.699219 168.617188 135.554688 163.703125 140.746094 157.960938 C 134.367188 158.039062 128.007812 158.019531 121.652344 157.980469 C 121.628906 157.980469 121.605469 157.980469 121.578125 157.980469 C 119.777344 157.96875 117.972656 157.953125 116.167969 157.941406 C 109.101562 157.890625 102.035156 157.839844 94.957031 157.890625 C 90.941406 162.742188 86.8125 167.273438 82.574219 171.484375 C 79.488281 174.546875 76.347656 177.4375 73.140625 180.160156 C 72.429688 180.078125 71.71875 180.007812 71.003906 179.945312 C 74.546875 176.988281 78.015625 173.828125 81.40625 170.457031 C 85.34375 166.550781 89.179688 162.367188 92.914062 157.90625 C 77.175781 158.0625 61.355469 158.769531 45.273438 161.144531 C 36.816406 162.394531 27.824219 164.371094 19.363281 166.867188 C 13.210938 168.679688 7.34375 170.761719 2.171875 173.03125 C 1.453125 173.113281 0.730469 173.199219 0 173.296875 C 0.820312 172.609375 1.625 171.933594 2.421875 171.273438 C 7.429688 169.132812 13.03125 167.160156 18.886719 165.4375 C 27.40625 162.925781 36.476562 160.929688 45.027344 159.667969 C 46.554688 159.441406 48.078125 159.230469 49.597656 159.035156 C 46.351562 157.652344 42.996094 156.289062 39.535156 154.945312 C 36.289062 153.6875 32.949219 152.449219 29.527344 151.234375 C 30.144531 150.882812 30.734375 150.558594 31.300781 150.265625 C 34.3125 151.34375 37.261719 152.445312 40.148438 153.5625 C 44.414062 155.214844 48.550781 156.917969 52.566406 158.671875 C 66.703125 157.007812 80.640625 156.503906 94.515625 156.398438 L 94.535156 156.398438 L 94.585938 156.394531 C 101.792969 156.34375 108.984375 156.394531 116.175781 156.445312 L 119.648438 156.472656 C 113.769531 151.128906 108.015625 146.4375 102.390625 142.394531 C 97.578125 138.941406 92.863281 135.964844 88.238281 133.464844 C 89.074219 133.316406 89.898438 133.191406 90.710938 133.089844 C 94.855469 135.421875 99.074219 138.128906 103.363281 141.207031 C 109.414062 145.554688 115.613281 150.648438 121.953125 156.488281 C 127.78125 156.523438 133.613281 156.539062 139.457031 156.480469 C 134.234375 154.507812 131.457031 152.238281 125.574219 147.878906 C 119.15625 143.125 111.710938 141.179688 106.875 134.390625 C 116.15625 132.117188 124.179688 128.617188 130.9375 123.890625 C 120.226562 127.332031 108.328125 128.121094 95.246094 126.265625 C 91.386719 122.464844 87.308594 119.234375 83.011719 116.574219 C 80.070312 114.632812 77.496094 112.789062 75.289062 111.054688 C 71.460938 108.039062 67.136719 102.164062 63.292969 100.765625 C 68.6875 101.050781 73.609375 100.136719 78.066406 98.015625 C 72.050781 98.320312 65.589844 97.714844 58.679688 96.203125 C 45.703125 85.855469 39.054688 71.089844 21.246094 62.828125 C 29.890625 61.679688 41.746094 61.847656 56.808594 63.324219 C 58.597656 64.25 60.703125 66.5625 63.125 70.261719 C 62.796875 67.960938 62.207031 65.792969 61.351562 63.761719 C 64.53125 63.574219 74.355469 68.078125 78.4375 69.222656 C 85.9375 71.316406 91.824219 71.347656 98.910156 72.679688 C 100.300781 72.941406 101.484375 73.269531 102.464844 73.671875 C 106.089844 76.109375 109.96875 80.820312 114.09375 87.796875 C 113.460938 83.511719 112.65625 80.011719 111.6875 77.296875 C 111.6875 77.296875 113.695312 78.003906 117.703125 79.421875 C 120.417969 81.617188 123.402344 88.828125 126.660156 101.046875 C 127.105469 93.910156 126.617188 88.242188 125.191406 84.046875 C 128.699219 84.726562 132.265625 86.4375 135.886719 89.171875 C 141.476562 94.097656 147.21875 97.832031 153.113281 100.367188 C 157.28125 100.996094 162.222656 101.539062 167.929688 101.988281 C 167.070312 100.488281 166.203125 98.960938 165.328125 97.425781 C 159.378906 86.957031 153.144531 75.988281 147.515625 68.792969 C 145.28125 65.933594 142.957031 63.125 140.574219 60.351562 C 140.554688 60.332031 140.539062 60.3125 140.519531 60.289062 C 139.734375 59.371094 138.9375 58.460938 138.136719 57.550781 C 133.738281 56.597656 129.699219 55.515625 126.023438 54.308594 C 123.347656 53.429688 120.867188 52.480469 118.578125 51.46875 L 117.988281 49.535156 C 120.566406 50.746094 123.421875 51.867188 126.550781 52.894531 C 129.585938 53.894531 132.882812 54.804688 136.4375 55.628906 C 132.160156 50.835938 127.757812 46.132812 123.378906 41.460938 C 117.414062 35.097656 111.5 28.78125 106.003906 22.339844 C 105.863281 21.78125 105.742188 21.222656 105.652344 20.671875 C 106.59375 21.449219 107.546875 22.175781 108.503906 22.859375 C 113.621094 28.777344 119.082031 34.605469 124.578125 40.472656 C 129.488281 45.714844 134.425781 50.984375 139.179688 56.378906 L 139.214844 56.421875 C 139.519531 56.761719 139.820312 57.105469 140.117188 57.449219 C 139.742188 54.328125 139.152344 51.199219 138.359375 48.070312 C 137.679688 45.402344 136.851562 42.738281 135.871094 40.070312 C 136.816406 41.046875 137.730469 42.085938 138.621094 43.191406 C 139.101562 44.703125 139.535156 46.214844 139.917969 47.722656 C 140.921875 51.671875 141.601562 55.621094 141.953125 59.566406 C 144.304688 62.304688 146.597656 65.085938 148.808594 67.910156 C 151.136719 70.886719 153.554688 74.476562 156.011719 78.402344 C 156.097656 73.351562 155.984375 68.792969 155.675781 64.726562 C 155.398438 61.101562 154.960938 57.878906 154.367188 55.058594 C 155.0625 55.722656 155.738281 56.421875 156.394531 57.175781 C 156.773438 59.445312 157.066406 61.925781 157.273438 64.621094 C 157.636719 69.363281 157.726562 74.792969 157.550781 80.902344 C 160.617188 85.9375 163.71875 91.394531 166.746094 96.722656 L 166.890625 96.976562 C 166.0625 94.382812 165.996094 92.929688 166.6875 92.621094 C 168.691406 94.144531 171.367188 95.960938 174.703125 98.078125 C 174.730469 96.441406 174.742188 94.84375 174.738281 93.277344 C 171.117188 88.683594 168.433594 84.714844 166.6875 81.371094 C 167.117188 75.597656 169.40625 66.222656 173.5625 53.25 C 173.5625 53.25 176.769531 57.082031 183.1875 64.75 C 177.265625 55.660156 174.515625 49.035156 174.9375 44.875 C 179.773438 36.078125 185.1875 21.121094 191.1875 -0.00390625 C 192.945312 7.867188 195.65625 15.035156 199.308594 21.5" fill="#274393"/></g></g><g clip-path="url(#b)" id="change3_1"><path d="M 132.851562 206.855469 L 131.292969 206.933594 C 131.210938 207.273438 131.128906 207.609375 131.042969 207.9375 C 131.597656 207.675781 132.175781 207.414062 132.777344 207.15625 Z M 205.398438 161.046875 L 208.238281 158.992188 C 220.25 151.699219 234.003906 148.320312 248.816406 147.761719 C 253.222656 153.984375 257.039062 159.085938 260.273438 163.070312 C 261.390625 164.449219 262.4375 165.695312 263.417969 166.804688 C 264.371094 167.15625 265.324219 167.496094 266.28125 167.828125 C 264.820312 166.292969 263.15625 164.378906 261.296875 162.078125 C 258.238281 158.3125 254.644531 153.519531 250.511719 147.710938 C 263.539062 147.40625 277.359375 149.222656 291.511719 152.433594 C 294.195312 159.125 297.085938 165.320312 300.175781 171.023438 C 302.023438 174.425781 303.941406 177.652344 305.929688 180.707031 C 306.648438 180.949219 307.367188 181.179688 308.085938 181.410156 C 305.742188 177.929688 303.496094 174.214844 301.351562 170.257812 C 298.4375 164.882812 295.703125 159.066406 293.15625 152.8125 C 294.449219 153.117188 295.746094 153.429688 297.042969 153.753906 C 303.96875 167.300781 310.277344 177.339844 315.960938 183.863281 C 316.984375 184.210938 317.976562 184.59375 318.945312 184.996094 C 313.007812 178.929688 306.308594 168.664062 298.847656 154.210938 C 320.96875 159.902344 343.707031 168.640625 365.351562 177.6875 C 369.804688 184.046875 373.988281 189.625 377.902344 194.421875 C 380.578125 197.703125 383.128906 200.613281 385.550781 203.152344 C 386.324219 203.308594 387.132812 203.457031 387.980469 203.597656 C 385.148438 200.746094 382.128906 197.355469 378.917969 193.425781 C 375.441406 189.164062 371.734375 184.257812 367.800781 178.710938 C 374.746094 181.632812 381.570312 184.574219 388.21875 187.445312 L 388.269531 187.46875 L 390.03125 188.230469 C 407.363281 195.714844 423.445312 202.664062 437.289062 207.4375 L 437.578125 207.484375 C 436.746094 206.683594 435.914062 205.886719 435.082031 205.09375 C 422.175781 200.484375 407.386719 194.117188 391.527344 187.265625 C 395.9375 186.929688 400.363281 186.699219 404.796875 186.574219 C 407.867188 186.488281 410.953125 186.449219 414.050781 186.460938 C 413.445312 185.960938 412.835938 185.460938 412.226562 184.964844 C 409.730469 184.96875 407.242188 185.007812 404.765625 185.078125 C 399.308594 185.234375 393.917969 185.539062 388.597656 186 C 381.269531 182.835938 373.726562 179.589844 366.050781 176.375 C 366.027344 176.367188 366.007812 176.359375 365.988281 176.351562 C 357.0625 172.617188 347.945312 168.9375 338.761719 165.496094 C 344.214844 163.734375 349.945312 162.195312 355.949219 160.882812 C 361.214844 159.730469 366.683594 158.757812 372.355469 157.960938 C 371.523438 157.566406 370.695312 157.183594 369.863281 156.8125 C 364.980469 157.546875 360.25 158.414062 355.679688 159.410156 C 348.976562 160.878906 342.59375 162.628906 336.535156 164.667969 C 323.59375 159.882812 310.535156 155.609375 297.6875 152.378906 C 297.65625 152.367188 297.625 152.359375 297.59375 152.355469 C 295.789062 151.902344 293.988281 151.472656 292.199219 151.0625 C 292.15625 151.046875 292.109375 151.039062 292.066406 151.03125 C 289.453125 150.4375 286.855469 149.890625 284.269531 149.390625 C 288.789062 147.242188 293.347656 145.394531 297.941406 143.847656 C 302.605469 142.277344 307.316406 141.015625 312.070312 140.0625 C 310.6875 139.84375 309.300781 139.640625 307.90625 139.445312 C 304.429688 140.273438 300.972656 141.261719 297.539062 142.417969 C 292.246094 144.199219 287.007812 146.375 281.828125 148.9375 C 270.597656 146.914062 259.644531 145.894531 249.195312 146.253906 C 249.144531 146.25 249.09375 146.25 249.042969 146.257812 C 247.914062 146.296875 246.789062 146.355469 245.671875 146.429688 C 248.800781 144.019531 251.84375 141.949219 254.796875 140.21875 C 257.660156 138.539062 260.449219 137.175781 263.15625 136.121094 C 261.710938 136.179688 260.277344 136.269531 258.855469 136.386719 C 257.3125 137.128906 255.742188 137.96875 254.152344 138.898438 C 250.574219 141 246.878906 143.578125 243.074219 146.628906 C 230.421875 147.757812 219.136719 150.796875 208.605469 157.066406 C 216.542969 144.746094 224.757812 132.546875 233.792969 121 C 240.285156 120.746094 246.441406 120.351562 252.265625 119.816406 C 253.003906 119.226562 253.710938 118.660156 254.398438 118.105469 C 248.304688 118.71875 241.84375 119.167969 235.007812 119.457031 C 235.960938 118.25 236.921875 117.050781 237.886719 115.855469 C 237.902344 115.839844 237.914062 115.820312 237.929688 115.800781 C 241.121094 111.851562 244.378906 107.96875 247.707031 104.15625 C 250.355469 101.125 253.042969 98.140625 255.777344 95.203125 C 265.164062 95.222656 274.453125 94.605469 283.652344 93.347656 C 291.503906 92.277344 299.300781 90.734375 307.046875 88.722656 C 307.679688 88.042969 308.296875 87.367188 308.902344 86.695312 C 300.511719 88.96875 292.039062 90.691406 283.484375 91.859375 C 274.78125 93.050781 266.011719 93.664062 257.179688 93.707031 C 260.539062 90.136719 263.96875 86.640625 267.460938 83.230469 L 267.5 83.191406 C 272.566406 78.25 277.769531 73.480469 283.117188 68.910156 C 291.054688 69.15625 299.324219 68.984375 307.929688 68.398438 C 313.589844 68.011719 319.394531 67.449219 325.347656 66.703125 C 325.753906 66.183594 326.175781 65.628906 326.609375 65.035156 C 320.183594 65.867188 313.933594 66.488281 307.851562 66.90625 C 299.875 67.449219 292.199219 67.632812 284.824219 67.460938 C 288.941406 63.992188 293.140625 60.644531 297.425781 57.421875 C 300.796875 54.886719 304.035156 52.617188 307.144531 50.621094 C 308.5 49.75 309.828125 48.929688 311.140625 48.15625 C 321.261719 48.105469 330.410156 47.347656 338.589844 45.886719 C 338.828125 45.351562 339.074219 44.804688 339.324219 44.238281 C 331.695312 45.664062 323.191406 46.464844 313.8125 46.632812 C 314.589844 46.203125 315.359375 45.792969 316.117188 45.402344 L 316.160156 45.378906 C 323.457031 40.945312 330.109375 36.65625 335.777344 32.78125 C 340.40625 29.617188 344.394531 26.71875 347.550781 24.234375 L 348.117188 22.785156 C 346.160156 24.234375 344.027344 25.578125 341.71875 26.816406 C 339.691406 28.296875 337.460938 29.867188 335.054688 31.511719 C 329.386719 35.386719 322.757812 39.65625 315.511719 44.0625 C 314.519531 44.574219 313.511719 45.117188 312.488281 45.691406 C 314.011719 42.28125 315.449219 39.132812 316.808594 36.25 C 316.179688 36.476562 315.5625 36.703125 314.957031 36.921875 C 313.535156 39.972656 312.03125 43.285156 310.445312 46.867188 C 309.136719 47.640625 307.808594 48.460938 306.453125 49.332031 C 303.300781 51.359375 300.03125 53.644531 296.652344 56.183594 C 286.695312 63.675781 277.195312 71.847656 268.140625 80.574219 C 269.015625 76.257812 269.867188 72.480469 270.699219 69.242188 C 271.445312 66.328125 272.171875 63.855469 272.882812 61.816406 C 272.234375 62.449219 271.542969 63.109375 270.785156 63.792969 C 270.324219 65.300781 269.855469 66.984375 269.378906 68.839844 C 268.417969 72.597656 267.425781 77.070312 266.402344 82.261719 C 259.589844 88.917969 253.03125 95.890625 246.714844 103.125 C 243.835938 106.425781 241.007812 109.78125 238.226562 113.183594 C 238.429688 110.339844 238.652344 107.632812 238.894531 105.070312 C 239.160156 102.273438 239.449219 99.613281 239.769531 97.097656 C 239.214844 97.824219 238.664062 98.554688 238.121094 99.300781 C 237.914062 101.097656 237.71875 102.96875 237.535156 104.917969 C 237.230469 108.117188 236.964844 111.488281 236.730469 115.027344 C 235.464844 116.597656 234.207031 118.175781 232.960938 119.765625 L 232.949219 119.78125 L 232.941406 119.796875 C 223.625 131.675781 214.894531 144.097656 206.71875 156.859375 L 206.710938 156.867188 C 206.375 157.394531 206.039062 157.914062 205.707031 158.441406 L 205.609375 158.632812 C 205.246094 159.207031 204.886719 159.777344 204.523438 160.339844 C 202.652344 154.65625 200.972656 148.601562 199.476562 142.167969 C 206.738281 135.78125 212.703125 129.648438 217.371094 123.765625 C 217.480469 122.832031 217.582031 121.882812 217.679688 120.917969 C 212.996094 127.152344 206.800781 133.683594 199.09375 140.507812 C 196.394531 128.515625 194.332031 115.246094 192.90625 100.691406 C 197.152344 97.890625 201.246094 94.703125 205.1875 91.132812 C 208.769531 87.890625 212.21875 84.335938 215.535156 80.46875 C 215.382812 79.84375 215.238281 79.242188 215.105469 78.667969 C 211.613281 82.8125 207.972656 86.597656 204.1875 90.027344 C 200.519531 93.347656 196.707031 96.339844 192.746094 99 C 192.546875 96.886719 192.363281 94.75 192.191406 92.585938 C 191.324219 81.652344 190.796875 70.042969 190.609375 57.761719 C 193.351562 55.234375 196.082031 52.574219 198.796875 49.773438 C 201.046875 47.449219 203.285156 45.03125 205.515625 42.519531 C 205.355469 41.914062 205.203125 41.332031 205.0625 40.769531 C 202.632812 43.535156 200.183594 46.1875 197.722656 48.730469 C 195.359375 51.167969 192.980469 53.507812 190.582031 55.746094 C 190.382812 39.21875 190.785156 21.488281 191.796875 2.550781 C 191.582031 1.707031 191.378906 0.855469 191.1875 -0.00390625 C 190.878906 1.089844 190.570312 2.160156 190.261719 3.21875 C 189.296875 21.585938 188.898438 38.816406 189.074219 54.910156 C 186.902344 51.597656 184.976562 48.457031 183.300781 45.488281 C 181.546875 42.382812 180.0625 39.460938 178.84375 36.71875 C 178.574219 37.351562 178.304688 37.964844 178.039062 38.5625 C 179.160156 40.980469 180.484375 43.53125 182 46.222656 C 184.023438 49.804688 186.394531 53.621094 189.109375 57.667969 C 189.296875 70.027344 189.824219 81.707031 190.695312 92.703125 C 190.851562 94.675781 191.019531 96.625 191.199219 98.554688 C 186.648438 94.640625 182.460938 90.460938 178.632812 86.019531 C 174.824219 81.605469 171.367188 76.925781 168.261719 71.976562 C 168.097656 72.691406 167.949219 73.382812 167.808594 74.050781 C 170.738281 78.585938 173.96875 82.902344 177.5 87 C 181.710938 91.882812 186.34375 96.449219 191.402344 100.691406 C 192.816406 115.183594 194.859375 128.425781 197.539062 140.410156 C 193.152344 137.847656 189.042969 134.9375 185.21875 131.675781 C 181.117188 128.183594 177.335938 124.285156 173.882812 119.992188 C 174.050781 120.816406 174.195312 121.589844 174.3125 122.3125 C 174.367188 122.5625 174.425781 122.8125 174.484375 123.0625 C 177.507812 126.59375 180.761719 129.84375 184.242188 132.8125 C 188.484375 136.425781 193.070312 139.621094 197.992188 142.390625 C 199.46875 148.757812 201.132812 154.765625 202.976562 160.40625 C 187.511719 153.503906 173.789062 144.007812 160.335938 134.035156 C 160.234375 131.214844 159.988281 128.351562 159.59375 125.449219 C 158.859375 124.511719 158.179688 123.585938 157.554688 122.675781 C 158.136719 126.113281 158.511719 129.488281 158.683594 132.804688 C 156.425781 131.121094 154.175781 129.433594 151.925781 127.738281 C 142.433594 120.601562 132.917969 113.449219 122.832031 107.011719 C 121.570312 99.910156 120.128906 93.589844 118.507812 88.046875 C 117.492188 84.574219 116.40625 81.410156 115.253906 78.554688 L 113.242188 77.84375 C 114.574219 80.96875 115.816406 84.503906 116.964844 88.4375 C 118.460938 93.554688 119.804688 99.359375 121 105.851562 C 119.320312 104.804688 117.625 103.773438 115.910156 102.769531 C 103.359375 95.414062 90.273438 88.695312 76.648438 82.597656 C 75.347656 78.804688 74.039062 75.117188 72.71875 71.53125 C 72.097656 69.835938 71.46875 68.148438 70.832031 66.472656 C 70.167969 66.222656 69.503906 65.972656 68.847656 65.734375 C 69.640625 67.804688 70.425781 69.898438 71.203125 72.015625 C 72.390625 75.242188 73.542969 78.472656 74.664062 81.714844 C 73.386719 81.148438 72.105469 80.589844 70.816406 80.035156 C 55.578125 73.484375 39.675781 67.679688 23.105469 62.605469 C 22.472656 62.671875 21.851562 62.746094 21.246094 62.828125 C 22.578125 63.445312 23.847656 64.101562 25.0625 64.785156 C 40.695312 69.660156 55.722656 75.191406 70.152344 81.394531 C 71.203125 81.847656 72.253906 82.304688 73.296875 82.761719 C 68.367188 83.460938 63.71875 84.042969 59.359375 84.507812 C 55.222656 84.949219 51.371094 85.28125 47.804688 85.507812 C 48.226562 85.980469 48.652344 86.453125 49.078125 86.925781 C 52.347656 86.699219 55.835938 86.390625 59.542969 85.996094 C 64.546875 85.464844 69.992188 84.765625 75.871094 83.90625 C 89.480469 89.992188 102.546875 96.699219 115.066406 104.035156 C 116.910156 105.117188 118.738281 106.230469 120.546875 107.367188 C 114.46875 110.316406 108.003906 112.589844 101.148438 114.191406 C 95.476562 115.515625 89.542969 116.382812 83.34375 116.785156 C 84.039062 117.21875 84.726562 117.667969 85.40625 118.132812 C 91 117.679688 96.378906 116.851562 101.539062 115.644531 C 108.800781 113.949219 115.640625 111.507812 122.050781 108.320312 C 132.027344 114.699219 141.484375 121.8125 150.921875 128.902344 C 153.304688 130.695312 155.683594 132.484375 158.074219 134.261719 C 152.433594 136.871094 146.308594 139.070312 139.699219 140.851562 C 133.714844 142.464844 127.332031 143.742188 120.550781 144.679688 C 121.238281 145.070312 121.929688 145.472656 122.613281 145.894531 C 128.785156 144.976562 134.628906 143.773438 140.140625 142.285156 C 147.105469 140.40625 153.546875 138.074219 159.453125 135.289062 C 171.027344 143.863281 182.804688 152.089844 195.738281 158.640625 C 196.546875 159.050781 201.96875 161.789062 202.59375 161.878906 C 197.683594 171.199219 193.183594 181.058594 188.574219 192.316406 C 182.457031 194.128906 176.714844 196.230469 171.34375 198.621094 C 168.132812 200.050781 165.054688 201.585938 162.109375 203.226562 C 161.71875 203.867188 161.3125 204.53125 160.886719 205.214844 L 160.507812 205.871094 C 164.105469 203.742188 167.921875 201.78125 171.953125 199.984375 C 176.921875 197.773438 182.21875 195.808594 187.851562 194.097656 C 183.035156 206 178.429688 218.816406 174.117188 232.265625 C 166.613281 235.960938 160.132812 239.738281 154.675781 243.597656 C 151.234375 246.035156 148.199219 248.507812 145.574219 251.007812 C 145.203125 252.035156 144.847656 253.070312 144.527344 254.175781 C 147.53125 251.003906 151.203125 247.886719 155.539062 244.816406 C 160.609375 241.226562 166.59375 237.703125 173.488281 234.246094 C 172.34375 237.851562 171.222656 241.496094 170.125 245.179688 C 167.042969 255.523438 164.140625 266.167969 161.449219 276.996094 C 156.40625 280.96875 152.054688 284.945312 148.394531 288.921875 C 146.183594 291.328125 144.222656 293.734375 142.515625 296.148438 C 142.550781 296.949219 142.582031 297.785156 142.609375 298.65625 C 144.53125 295.746094 146.824219 292.84375 149.496094 289.9375 C 152.738281 286.414062 156.527344 282.894531 160.863281 279.378906 C 155.628906 300.753906 151.238281 322.804688 147.964844 344.613281 C 148.140625 344.984375 148.324219 345.351562 148.511719 345.714844 C 148.847656 345.316406 149.175781 344.917969 149.492188 344.515625 C 152.722656 323.066406 157.035156 301.382812 162.167969 280.34375 C 164.128906 287.335938 165.726562 293.96875 166.964844 300.246094 C 167.851562 304.738281 168.550781 309.039062 169.066406 313.152344 C 169.5 312.660156 169.941406 312.171875 170.386719 311.6875 C 169.886719 307.933594 169.238281 304.023438 168.433594 299.960938 C 167.046875 292.917969 165.195312 285.40625 162.890625 277.414062 C 165.578125 266.589844 168.480469 255.945312 171.5625 245.605469 C 172.699219 241.78125 173.863281 238.003906 175.050781 234.269531 C 180.269531 240.121094 184.695312 246.039062 188.332031 252.027344 C 191.265625 256.855469 193.6875 261.734375 195.597656 266.660156 C 195.886719 265.996094 196.167969 265.359375 196.445312 264.742188 C 194.59375 260.207031 192.316406 255.710938 189.609375 251.253906 C 185.78125 244.953125 181.105469 238.738281 175.578125 232.613281 C 179.910156 219.113281 184.539062 206.25 189.375 194.320312 C 194.214844 199.730469 198.527344 204.996094 202.3125 210.125 C 206.132812 215.300781 209.40625 220.332031 212.140625 225.214844 C 212.277344 224.488281 212.425781 223.738281 212.578125 222.960938 C 210.003906 218.507812 206.980469 213.929688 203.515625 209.234375 C 199.585938 203.910156 195.082031 198.425781 190 192.785156 C 194.574219 181.613281 199.335938 171.28125 204.199219 162.035156 C 210.851562 166.703125 217.464844 171.867188 224.046875 177.519531 C 222.589844 184.941406 221.59375 192.183594 221.0625 199.238281 C 220.703125 204.050781 220.558594 208.777344 220.628906 213.421875 C 221.144531 214.277344 221.664062 215.085938 222.183594 215.847656 C 222.011719 210.46875 222.136719 204.96875 222.558594 199.351562 C 223.0625 192.621094 223.996094 185.71875 225.355469 178.648438 C 226.714844 179.832031 228.070312 181.035156 229.425781 182.257812 C 235.050781 187.335938 240.648438 192.773438 246.21875 198.574219 C 244.574219 208.484375 243.484375 218.105469 242.945312 227.4375 C 242.550781 234.316406 242.453125 241.035156 242.660156 247.597656 C 243.195312 248.328125 243.722656 249.0625 244.238281 249.796875 C 243.933594 242.566406 244 235.140625 244.441406 227.519531 C 244.953125 218.59375 245.980469 209.394531 247.515625 199.925781 C 250.019531 202.5625 252.519531 205.269531 255.011719 208.046875 C 256 209.148438 256.988281 210.261719 257.976562 211.386719 C 257.988281 211.40625 258.007812 211.425781 258.023438 211.441406 C 262.613281 216.675781 267.191406 222.164062 271.761719 227.914062 C 274.578125 231.460938 277.386719 235.097656 280.1875 238.828125 C 279.546875 248.644531 279.550781 258.128906 280.203125 267.285156 C 280.71875 274.535156 281.644531 281.582031 282.972656 288.425781 C 283.589844 288.941406 284.203125 289.472656 284.816406 290.011719 C 283.296875 282.648438 282.257812 275.039062 281.699219 267.179688 C 281.089844 258.636719 281.050781 249.804688 281.574219 240.683594 C 283.84375 243.730469 286.105469 246.839844 288.363281 250.011719 C 294.027344 257.964844 298.875 265.410156 303.359375 272.765625 C 303.320312 282.207031 303.863281 290.496094 304.988281 297.632812 C 305.820312 302.890625 306.96875 307.527344 308.433594 311.539062 C 309.144531 312.082031 309.894531 312.632812 310.6875 313.191406 C 308.84375 308.808594 307.4375 303.546875 306.464844 297.40625 C 305.449219 290.972656 304.914062 283.585938 304.859375 275.242188 C 310.785156 285.121094 316.144531 294.921875 322.019531 305.667969 C 323.558594 308.488281 325.125 311.355469 326.269531 313.4375 C 329.019531 318.449219 331.378906 322.390625 333.347656 325.269531 L 333.648438 325.703125 C 333.960938 325.667969 334.207031 325.589844 334.390625 325.460938 C 333.21875 323.664062 332.195312 321.597656 331.3125 319.261719 C 330.164062 317.335938 328.921875 315.15625 327.582031 312.71875 C 325.816406 309.503906 324.558594 307.199219 323.328125 304.953125 C 317.328125 293.976562 311.867188 283.980469 305.785156 273.882812 C 309.089844 275.011719 312.421875 276.523438 315.78125 278.414062 C 318.496094 279.941406 321.230469 281.714844 323.980469 283.738281 C 323.808594 282.992188 323.632812 282.253906 323.457031 281.515625 C 321.132812 279.871094 318.816406 278.402344 316.511719 277.105469 C 312.511719 274.855469 308.539062 273.128906 304.597656 271.921875 C 300.109375 264.558594 295.253906 257.105469 289.585938 249.144531 C 287.277344 245.902344 284.960938 242.726562 282.644531 239.617188 C 287.015625 240.300781 291.527344 241.171875 296.179688 242.226562 C 300.40625 243.183594 304.761719 244.296875 309.238281 245.558594 C 308.882812 244.972656 308.515625 244.351562 308.132812 243.699219 C 304.160156 242.601562 300.285156 241.621094 296.507812 240.765625 C 291.265625 239.578125 286.21875 238.625 281.367188 237.90625 C 278.5625 234.167969 275.75 230.527344 272.933594 226.984375 C 268.808594 221.792969 264.660156 216.796875 260.492188 212 C 266.878906 213.085938 272.832031 214.296875 278.355469 215.632812 C 283.179688 216.800781 287.6875 218.070312 291.871094 219.433594 C 291.367188 218.753906 290.871094 218.074219 290.386719 217.390625 C 286.730469 216.25 282.835938 215.179688 278.707031 214.179688 C 272.621094 212.707031 266.03125 211.386719 258.945312 210.226562 C 258.003906 209.15625 257.066406 208.101562 256.125 207.050781 C 253.285156 203.882812 250.4375 200.8125 247.585938 197.835938 C 247.570312 197.816406 247.550781 197.796875 247.527344 197.777344 C 241.851562 191.855469 236.152344 186.3125 230.429688 181.144531 C 229.152344 179.992188 227.875 178.859375 226.59375 177.742188 C 232.144531 176.980469 237.585938 176.632812 242.917969 176.703125 C 247.328125 176.765625 251.671875 177.109375 255.953125 177.738281 C 255.113281 177.109375 254.277344 176.496094 253.445312 175.898438 C 249.984375 175.488281 246.484375 175.257812 242.933594 175.210938 C 237.09375 175.132812 231.148438 175.542969 225.09375 176.445312 C 218.5625 170.828125 211.996094 165.691406 205.398438 161.046875 Z M 51.457031 242.359375 C 57.671875 237.980469 63.828125 233.265625 70.027344 228.523438 C 75.558594 224.289062 81.125 220.027344 86.804688 215.945312 L 86.835938 215.921875 C 87.199219 215.664062 87.558594 215.402344 87.921875 215.144531 C 82.113281 215.414062 76.246094 216.355469 70.320312 217.960938 C 71.351562 217.148438 72.441406 216.363281 73.597656 215.605469 C 79.15625 214.347656 84.671875 213.671875 90.140625 213.582031 C 93.023438 211.566406 95.9375 209.605469 98.894531 207.730469 C 102.003906 205.757812 105.738281 203.738281 109.8125 201.703125 C 104.769531 201.289062 100.210938 201.089844 96.144531 201.113281 C 92.511719 201.132812 89.269531 201.328125 86.417969 201.695312 C 87.121094 201.09375 87.855469 200.507812 88.652344 199.949219 C 90.9375 199.742188 93.433594 199.632812 96.136719 199.617188 C 100.90625 199.59375 106.328125 199.863281 112.402344 200.433594 C 117.613281 197.90625 123.25 195.371094 128.753906 192.898438 C 130.753906 192 132.734375 191.109375 134.667969 190.230469 C 134.699219 190.214844 134.726562 190.203125 134.761719 190.191406 C 137.351562 189.011719 139.859375 187.859375 142.21875 186.730469 C 134.753906 185.851562 127.886719 185.269531 121.617188 184.980469 C 117.171875 184.773438 113.019531 184.71875 109.15625 184.804688 C 109.808594 184.308594 110.457031 183.796875 111.101562 183.277344 C 114.421875 183.242188 117.949219 183.3125 121.683594 183.484375 C 128.664062 183.808594 136.339844 184.488281 144.710938 185.523438 C 144.375 185.832031 144.035156 186.144531 143.699219 186.464844 L 141.585938 188.683594 C 139.695312 189.578125 137.726562 190.484375 135.707031 191.402344 C 135.496094 192.824219 135.28125 194.199219 135.066406 195.523438 L 133.222656 197.445312 C 133.511719 195.765625 133.800781 193.996094 134.078125 192.140625 C 132.527344 192.839844 130.949219 193.550781 129.363281 194.265625 C 118.558594 199.121094 107.242188 204.207031 99.699219 208.996094 C 95.695312 211.535156 91.769531 214.226562 87.898438 217.003906 C 86.675781 221.046875 85.347656 224.742188 83.917969 228.09375 C 82.875 230.53125 81.777344 232.78125 80.625 234.847656 L 78.65625 235.273438 C 80.027344 232.945312 81.320312 230.355469 82.539062 227.503906 C 83.722656 224.738281 84.835938 221.726562 85.878906 218.464844 C 80.832031 222.136719 75.867188 225.933594 70.933594 229.710938 C 64.21875 234.851562 57.558594 239.953125 50.78125 244.660156 C 50.214844 244.753906 49.652344 244.832031 49.097656 244.878906 C 49.933594 244.050781 50.714844 243.210938 51.457031 242.359375" fill="#f47185" fill-rule="evenodd"/></g></g></svg>